<svg width="873" height="528" viewBox="0 0 873 528" fill="none" xmlns="http://www.w3.org/2000/svg">
<path d="M141.327 495.715C136.784 493.238 132.806 488.868 128.33 489.096C123.815 489.325 120.693 494.493 116.911 497.427C105.466 506.306 94.1607 515.364 82.7589 524.299C79.0741 527.187 74.9195 529.226 70.2925 527.022C65.6346 524.803 64.7123 520.203 64.6889 515.578C64.5972 497.417 64.4849 479.253 64.7383 461.096C64.8068 456.188 62.9529 453.906 58.4356 452.534C26.3262 442.784 8.85575 420.025 1.94781 388.163C1.0053 383.815 0.704717 379.253 0.700796 374.789C0.633703 298.311 0.137472 221.828 0.937566 145.358C1.23453 116.975 13.1124 93.4172 38.7489 78.6064C51.1713 71.4296 64.979 69.339 79.0349 68.7384C86.6859 68.4115 94.3807 68.3222 102.019 68.7588C107.644 69.0802 110.22 67.2993 111.649 61.595C116.467 42.3589 126.973 26.569 142.958 14.804C155.154 5.82847 168.993 1.36346 184.263 0.40417C208.389 -1.11147 229.38 5.39469 246.295 22.9653C256.619 33.6887 263.584 46.5659 268.076 60.7395C270.833 69.4412 269.602 68.64 279.008 68.6264C293.975 68.6047 308.967 68.2525 323.61 72.163C352.933 79.9942 368.14 100.776 375.273 128.824C376.873 135.116 377.381 141.562 377.376 148.092C377.312 223.404 377.737 298.719 377.159 374.026C376.887 409.511 359.927 435.711 327.731 451.007C296.26 465.959 265.949 483.064 235.194 499.349C224.01 505.271 212.841 511.224 201.707 517.241C193.31 521.779 185.577 522.265 177.003 516.561C165.655 509.013 153.463 502.735 141.327 495.715ZM180.368 422.951C181.665 423.815 182.388 425.573 184.649 425.581C184.649 412.18 184.408 398.878 184.739 385.59C184.937 377.68 182.316 371.423 176.64 366.028C164.481 354.47 150.834 345.027 136.197 336.954C113.067 324.198 88.2114 317.59 61.8844 316.411C55.7963 316.138 54.3733 317.578 54.3626 323.501C54.3305 341.157 54.4159 358.815 54.3115 376.471C54.2846 381.014 56.2953 382.737 60.6798 382.643C83.5397 382.152 105.626 386.596 127.177 393.769C146.42 400.174 164.515 408.869 180.368 422.951ZM211.707 413.172C243.793 392.507 279.198 383.279 317.083 382.652C324.494 382.529 324.949 382.104 325.049 374.703C325.284 357.22 324.483 339.73 325.446 322.25C325.617 319.149 324.047 317.138 320.871 316.771C318.73 316.524 316.55 316.353 314.403 316.464C291.314 317.66 269.407 323.327 249.061 334.407C230.872 344.312 213.52 355.425 199.366 370.869C195.817 374.741 194.18 379.14 194.275 384.486C194.489 396.477 194.314 408.474 194.373 420.468C194.381 422.208 193.744 424.163 195.595 425.855C200.76 421.768 205.935 417.673 211.707 413.172ZM211.269 187.777C204.849 197.441 202.693 208.07 203.206 219.601C203.96 236.558 216.858 255.088 232.742 260.815C239.164 263.13 245.751 263.855 252.107 260.497C256.302 258.28 258.592 254.341 258.288 249.871C257.977 245.309 254.543 243.807 249.901 243.138C238.214 241.452 229.246 235.48 225.7 223.644C222.384 212.576 225.32 203.013 233.953 195.177C238.391 191.148 242.474 186.727 246.915 182.7C256.291 174.2 264.724 164.678 274.741 156.881C282.149 151.115 290.694 149.947 299.344 152.681C318.487 158.733 325.486 181.25 313.715 197.831C309.828 203.305 304.983 207.951 300.005 212.331C296.017 215.84 295.391 218.73 298.318 223.257C300.75 227.019 302.125 231.465 304.154 236.025C312.216 230.088 318.384 223.276 325.159 217.166C340.485 203.346 345.008 186.049 339.998 166.377C330.342 128.47 282.874 115.842 254.144 143.502C241.784 155.402 229.785 167.68 217.705 179.868C215.49 182.103 213.673 184.731 211.269 187.777ZM232.799 95.2607C242.959 62.5004 215.318 31.4574 181.427 37.2326C152.699 42.1281 136.112 75.8176 149.296 100.603C155.888 112.996 163.782 124.491 172.095 135.721C177.5 143.023 183.078 150.227 189.882 156.758C195.337 151.596 199.854 146.099 204.188 140.464C214.943 126.479 225.608 112.426 232.799 95.2607ZM245.507 223.011C246.313 223.205 247.11 223.508 247.927 223.575C259.364 224.503 267.135 230.347 271.268 241.009C275.426 251.737 273.282 261.275 265.501 269.573C261.861 273.457 257.978 277.112 254.233 280.898C245.215 290.014 236.577 299.544 227.111 308.166C216.114 318.182 200.385 315.472 193.938 303.164C189.185 294.092 190.721 283.592 198.165 275.468C201.539 271.787 205.181 268.353 208.649 264.757C209.649 263.72 211.183 262.575 209.929 260.93C206.263 256.12 202.458 251.416 200.252 248.625C193.534 254.328 186.459 259.265 180.701 265.43C165.607 281.591 164.971 303.212 179.208 320.256C189.159 332.168 202.027 338.158 218.062 335.779C227.909 334.318 235.878 329.397 242.788 322.698C253.549 312.265 263.806 301.306 274.676 290.99C288.104 278.248 294.392 263.2 292.804 244.509C291.306 226.881 276.945 208.976 259.735 204.777C251.105 202.671 244 204.923 240.71 210.809C237.749 216.104 239.275 220.643 245.507 223.011ZM125.908 207.407C128.368 205.408 130.13 202.512 133.893 200.993C132.791 213.358 141.307 222.167 143.692 232.98C143.786 233.41 144.225 233.841 144.614 234.115C148.087 236.561 159.946 234.002 162.254 230.279C169.844 218.038 169 205.677 162.55 193.348C160.414 189.265 159.105 189.397 156.322 193.367C154.598 195.827 153.339 199.023 148.878 198.778C148.528 189.947 149.21 181.07 144.698 172.994C140.282 165.092 134.405 159.199 125.683 155.903C125.251 157.222 124.908 157.714 124.978 158.137C126.633 168.085 122.798 175.971 115.944 182.827C111.239 187.533 106.499 192.225 102.107 197.216C93.9162 206.523 93.0511 216.706 99.159 227.568C103.446 235.192 107.226 236.558 116.533 233.434C113.934 223.159 117.317 214.665 125.908 207.407ZM131.369 322.024C133.936 323.082 136.2 325.02 139.471 324.782C141.276 321.229 140.865 317.312 140.547 313.612C139.653 303.222 142.532 294.319 149.676 286.681C151.956 284.244 153.31 281.215 153.68 277.747C154.092 273.882 152.638 272.267 148.707 272.304C137.076 272.414 125.443 272.292 113.811 272.366C109.114 272.396 107.564 274.406 108.591 279.013C109.401 282.646 111.198 285.824 113.811 288.49C119.458 294.254 122.412 301.423 122.02 309.208C121.665 316.25 123.912 320.22 131.369 322.024ZM136.659 264.47C144.642 264.501 152.628 264.664 160.609 264.516C165.706 264.422 168.686 260.492 168.678 254.497C168.669 248.565 165.957 245.249 160.672 245.227C141.52 245.145 122.367 245.114 103.216 245.219C97.6954 245.249 95.0439 248.983 95.3002 255.603C95.5235 261.369 98.5495 264.285 103.813 264.26C114.466 264.208 125.121 264.337 136.659 264.47Z" fill="#036A3B"/>
<path d="M534.179 385.285C512.226 378.718 502.662 365.863 502.653 343.403C502.645 321.576 502.64 299.749 502.657 277.922C502.662 270.95 502.957 270.692 510.078 270.655C513.577 270.636 517.09 270.83 520.572 270.581C525.39 270.237 527.206 272.503 527.164 277.055C527.085 285.551 527.14 294.049 527.139 302.547C527.138 315.21 527.134 327.873 527.139 340.535C527.14 344.204 527.24 347.85 528.627 351.343C531.926 359.646 538.993 363.685 548.636 362.713C555.828 361.989 562.153 355.46 563.619 347.371C564.637 341.757 564.315 336.161 564.162 330.488C563.668 312.174 563.645 293.848 564.471 275.532C564.615 272.334 565.755 270.553 569.255 270.645C574.083 270.772 578.917 270.692 583.749 270.682C586.815 270.676 588.34 272.106 588.335 275.247C588.297 300.072 588.922 324.919 588.076 349.717C587.385 369.974 570.418 385.482 549.99 386.316C544.846 386.526 539.664 386.712 534.179 385.285Z" fill="#036A3B"/>
<path d="M850.345 333.309C842.294 343.28 842.996 340.709 849.949 349.918C856.57 358.687 863.405 367.295 870.109 376.003C871.31 377.562 872.861 379.174 871.901 381.382C870.893 383.701 868.648 383.318 866.684 383.337C862.854 383.373 858.969 382.944 855.206 383.448C849.433 384.222 845.903 381.612 842.712 377.227C836.083 368.12 829.144 359.24 821.349 348.972C821.349 359.081 821.371 367.656 821.342 376.23C821.321 382.835 820.835 383.3 814.19 383.347C810.693 383.371 807.183 383.176 803.701 383.404C799.14 383.704 797.552 381.791 797.592 377.266C797.753 358.615 797.654 339.962 797.654 321.309C797.654 306.653 797.753 291.997 797.598 277.343C797.554 273.119 798.997 271.164 803.356 271.314C807.01 271.439 810.678 271.08 814.339 271.091C820.317 271.109 821.322 272.105 821.333 278.029C821.364 295.183 821.342 312.337 821.354 329.49C821.355 330.784 821.461 332.077 821.54 333.873C824.663 331.627 826.298 328.736 828.334 326.236C833.272 320.169 838.208 314.097 842.988 307.906C845.447 304.721 848.369 303.334 852.438 303.596C857.083 303.894 861.76 303.665 866.423 303.685C868.104 303.692 869.894 303.668 870.8 305.43C871.836 307.443 870.499 308.943 869.343 310.345C863.099 317.92 856.814 325.461 850.345 333.309Z" fill="#036A3B"/>
<path d="M731.349 367.991C731.338 371.985 731.316 375.482 731.32 378.978C731.323 381.842 729.923 383.308 727.052 383.312C722.058 383.32 717.063 383.329 712.068 383.3C708.108 383.278 707.647 380.594 707.653 377.489C707.675 366.166 707.652 354.844 707.653 343.521C707.653 332.199 707.743 320.876 707.625 309.555C707.581 305.309 709.286 303.432 713.579 303.631C717.4 303.809 721.242 303.795 725.064 303.631C729.095 303.459 732.213 304.106 731.178 309.932C741.388 301.931 752.14 300.624 763.431 303.594C775.962 306.889 784.101 317.308 784.285 330.273C784.508 346.088 784.268 361.909 784.392 377.726C784.423 381.747 782.984 383.591 778.851 383.379C775.364 383.201 771.86 383.361 768.363 383.352C761.649 383.333 760.822 382.575 760.784 375.968C760.711 363.148 760.789 350.326 760.635 337.507C760.555 330.881 757.321 326.346 751.788 324.378C741.318 320.653 731.674 327.221 731.407 338.522C731.179 348.174 731.353 357.836 731.349 367.991Z" fill="#036A3B"/>
<path d="M418.962 373.995C409.66 362.701 409.924 361.527 422.726 355.953C424.404 355.223 426.157 354.642 427.769 353.79C431.137 352.009 433.674 352.776 436.028 355.717C438.9 359.307 442.555 361.962 447.242 362.612C458 364.104 464.524 358.483 464.611 347.423C464.744 330.608 464.651 313.791 464.653 296.976C464.653 290.982 464.647 284.988 464.653 278.994C464.66 270.67 464.664 270.662 472.898 270.633C476.394 270.62 479.892 270.709 483.387 270.637C486.622 270.57 488.357 271.786 488.35 275.28C488.295 302.085 488.743 328.901 488.093 355.69C487.802 367.689 480.733 376.559 470.044 382.011C454.778 389.795 430.789 387.745 418.962 373.995Z" fill="#036A3B"/>
<path d="M619.791 270.661C624.745 270.316 625.391 273.015 625.382 276.675C625.316 301.982 625.343 327.289 625.358 352.596C625.362 359.356 625.659 359.642 632.436 359.668C639.428 359.696 646.421 359.638 653.414 359.7C658.871 359.748 660.122 360.985 660.239 366.511C660.321 370.338 660.346 374.178 660.111 377.994C659.899 381.425 658.19 383.397 654.35 383.374C638.533 383.276 622.716 383.263 606.9 383.372C602.572 383.401 601.581 381.186 601.594 377.414C601.655 359.6 601.578 341.785 601.573 323.97C601.569 308.669 601.569 293.367 601.62 278.066C601.645 270.778 601.768 270.702 608.825 270.663C612.321 270.644 615.818 270.658 619.791 270.661Z" fill="#036A3B"/>
<path d="M669.909 377.628C669.879 355.372 669.844 333.578 669.883 311.784C669.897 304.15 670.475 303.662 678.179 303.659C681.506 303.658 684.838 303.783 688.16 303.646C692.057 303.484 693.403 305.275 693.388 309.06C693.298 332.018 693.307 354.978 693.386 377.936C693.399 381.717 691.963 383.482 688.098 383.36C684.109 383.234 680.102 383.159 676.123 383.399C672.155 383.637 670.169 381.991 669.909 377.628Z" fill="#036A3B"/>
<path d="M668.661 282.876C668.971 275.341 671.835 271.217 677.539 269.654C683.948 267.897 690.654 270.157 693.805 275.136C696.624 279.59 695.94 287.089 692.315 291.474C688.76 295.774 681.921 297.425 676.41 295.113C671.243 292.946 669.186 288.597 668.661 282.876Z" fill="#036A3B"/>
<path d="M210.36 86.961C206.672 99.3796 197.285 105.313 185.219 103.237C175.519 101.569 167.852 91.6521 168.04 81.0192C168.235 70.0228 176.199 61.4864 187.627 60.0241C201.876 58.2009 213.791 72.0745 210.36 86.961Z" fill="#036A3B"/>
</svg>
